<svg xmlns="http://www.w3.org/2000/svg" viewBox="0 0 349.37 377.49"><defs><style>.cls-1{fill:#fff;}.cls-2{font-size:87px;fill:#573d58;font-family:Allura-Regular, Allura;}.cls-3{font-size:36px;fill:#231300;font-family:BodoniSvtyTwoOSITCTT-Book, "Bodoni 72 Oldstyle";letter-spacing:0.02em;}</style></defs><title>logo</title><g id="logo"><g id="logogroup1"><path d="M335,322.43c-13-10.94-28.72-15.28-44.6-19C275.75,300,261,297.17,246.27,294a24.83,24.83,0,0,1-5.71-1.74c-1.91-.94-5-2.27-5.08-3.59-.17-2.59,3.05-3,5.15-3.74,3.13-1.11,6.38-1.86,9.54-2.86,3.33-1.05,6.68-2.05,9.89-3.37,2.72-1.13,5.34-2.73,5.49-6.15s-1.88-5.58-4.54-6.92c-4.06-2.05-8.19-4.28-12.55-5.34-15.81-3.86-31.74-7.23-47.61-10.83-6.47-1.47-12.94-3-19.36-4.65-2-.52-5.12-1-4.89-3.35.15-1.58,2.69-3.39,4.55-4.28,7.34-3.5,15.34-4.77,23.29-6.14,2.94-.5,5.93-.78,8.85-1.39.72-.15,1.26-1.19,1.88-1.82-.76-.46-1.55-1.37-2.27-1.31-17.63,1.47-35.34,2.45-52.53,7.08A40.51,40.51,0,0,0,150.11,238c-4.75,2.86-4.82,8.17.06,10.77a82.34,82.34,0,0,0,15.46,6.07c10.75,3.19,21.65,5.85,32.44,8.91,4.11,1.17,8.25,2.51,11.88,6.22a35.9,35.9,0,0,1-5.07,2.76c-4.31,1.49-8.73,2.66-13.06,4.11-5.43,1.81-10.87,3.62-16.19,5.73a18.1,18.1,0,0,0-5.53,3.71c-2.66,2.52-2.7,5.6-.51,8.53a17,17,0,0,0,9.17,6.16c8.54,2.41,17.22,4.32,25.77,6.7s17,4.67,25.22,7.68a38.27,38.27,0,0,1,18.88,14.88c3.35,5,8.36,8.12,13.76,10.39,5,2.12,10.32,3.66,15.49,5.45.77.26,1.56.44,2.68.76C228.8,358.35,158,335.17,129.44,266.69c-27.47-65.77,1.42-141.92,65.78-172.5,67.23-31.93,142.84-5,176.48,55.89C405.78,211.76,385.64,285.15,335,322.43ZM235.41,192.5l1.89-.47c.26.81.59,1.79.9,2.76l2.47.39,1-2.23c6.78,1.42,12.67,5.6,19.85,4.84-.05-5,3.27,0,4.64-1.36-.28-.45-.56-.9-1-1.56,1.56-.21,3.19-1,2.57,1.25l3.44,1.3c.12-.94.24-1.87.38-2.93a18.55,18.55,0,0,1,3.63,1,71.32,71.32,0,0,1,7.63,4.29,6.77,6.77,0,0,1,3.46,5.48c.11,4.63.26,9.27.3,13.91,0,2.32.81,3.19,3.29,3.19,2.68,0,4.1-1.1,3.94-3.17-.21-2.81-.49-5.62-.81-8.42a6.66,6.66,0,0,1,2.76-6.73,16,16,0,0,0,5.73-7.3c1.18-3.11,2-3.49,4.95-1.94,2.11,1.12,3.93,1.15,5.59-.54,3.74-3.81,8.78-3.2,13.39-4.09a1,1,0,0,1,.68.11c2.08,1.63,4.6,2.8,4.56,6.17,0,2.54,1.73,4.13,4.15,5.46.29-1.37.52-2.45.77-3.66a13.65,13.65,0,0,0,1.66-.78c1-.66,3.57.32,4.34,1.28a8.57,8.57,0,0,0,2.94,2,5.28,5.28,0,0,0,2,0c.16-.93.35-2,.65-3.8l9.33,2.1c-.53-2.46.2-2.91,3.86-2.13V190.5c1.59-.51,4.2-.59,4.74-1.69,1-1.94.91-4.61-2.34-5.05.51-2.36,2.88-4.18,1.64-6-2.32-2.22-6,1.49-6.88-3l1.88-.62c-.17-3.59-3.73-3.35-5.65-5-.09-.08-.32,0-.47,0-1.82.38-4-1.39-3.53-3.14.63-2.22-.31-3.17-1.95-4.39-.6-.44-3.41-1.44-1.63-3.09l-4.34-7.17c2.6-2.1,1.39-3.86-.83-5.56a2.88,2.88,0,0,1-1.17-1.76c-.12-2.63-.07-2.6-2.47-4.51a4.34,4.34,0,0,1-1.58-2c-.68-2.53-1.61-4.31-4.81-3.56-.93.22-2.91.58-2.65-1.72l-4-.43a4.92,4.92,0,0,0-2.29-2.71c-1-.42-2.34.13-3.41-.19a41,41,0,0,1-4.81-2.07l.85-2.05-1.57.27c-.53-1.08-.92-2.56-1.32-2.56a28.41,28.41,0,0,0-5.24.69c-.06,0,0,.58-.06.87,0,.09-.27.13-.41.2a20,20,0,0,0-6.31-1.68c-1.24-.11-3.61.34-3.66.75-.39,3.45-2.24,5.19-5.52,5.73-.27,0-.55.63-.7.58-1.56-.51-3.13,1.94-4.95-.6-1.14-1.59-4-2.55-6.17-2.67-2.7-.16-5.48.83-8.35,1.35L270,126c-.24,2.25-1.35,2.64-2.86,2.14-2.72-.92-5,.14-7.2,1.51a20.59,20.59,0,0,0-3.76,2.94,11.25,11.25,0,0,0-2.65,3.66c-.86,2.26-2.74,3.27-4.88,2.31a2.28,2.28,0,0,0-2,.08c-1.48,1.3-2.78,2.8-4.1,4.19l-1.88-1.32c-.45,1.61-3.71,5.29-6,6.13-2.52.9-2.53,2.28-2.32,4.61s2.19,5.12-.73,6.85l1.38,2.89a10.91,10.91,0,0,1-2.38.94c-3.91.61-7.06,5.35-6.05,9.22.63,2.43.2,3.19-2.08,3.37-2.95.23-5.91.39-8.26.54L213,179.81c-.35,1.1-1.26,2.92-.94,3.18,1.78,1.41,1.3,2.89.35,4.67,3.24-.2,5.83-3,9-1.28-.33,1.25-2.25,2.67.09,3.19a11.23,11.23,0,0,0-.35,2.73c0,.28,1.17.76,1.64.62,2-.59,3.89-1.37,6.09-2.18.44,1.89.81,3.54,1.17,5.08l3.42-1.32Z" transform="translate(-78.05 -80.66)"/><path class="cls-1" d="M233.41,194.5,230,195.82c-.36-1.54-.73-3.19-1.17-5.08-2.2.81-4.11,1.59-6.09,2.18-.47.14-1.61-.34-1.64-.62a11.23,11.23,0,0,1,.35-2.73c-2.34-.52-.42-1.94-.09-3.19-3.16-1.69-5.75,1.08-9,1.28.95-1.78,1.43-3.26-.35-4.67-.32-.26.59-2.08.94-3.18l1.21-3.76c2.35-.15,5.31-.31,8.26-.54,2.28-.18,2.71-.94,2.08-3.37-1-3.87,2.14-8.61,6.05-9.22a10.91,10.91,0,0,0,2.38-.94l-1.38-2.89c2.92-1.73.95-4.54.73-6.85s-.2-3.71,2.32-4.61c2.32-.84,5.58-4.52,6-6.13l1.88,1.32c1.32-1.39,2.62-2.89,4.1-4.19a2.28,2.28,0,0,1,2-.08c2.14,1,4-.05,4.88-2.31a11.25,11.25,0,0,1,2.65-3.66,20.59,20.59,0,0,1,3.76-2.94c2.19-1.37,4.48-2.43,7.2-1.51,1.51.5,2.62.11,2.86-2.14l.46,1.76c2.87-.52,5.65-1.51,8.35-1.35,2.16.12,5,1.08,6.17,2.67,1.82,2.54,3.39.09,4.95.6.15.05.43-.54.7-.58,3.28-.54,5.13-2.28,5.52-5.73.05-.41,2.42-.86,3.66-.75a20,20,0,0,1,6.31,1.68c.14-.07.39-.11.41-.2.07-.29,0-.86.06-.87a28.41,28.41,0,0,1,5.24-.69c.4,0,.79,1.48,1.32,2.56l1.57-.27-.85,2.05a41,41,0,0,0,4.81,2.07c1.07.32,2.43-.23,3.41.19a4.92,4.92,0,0,1,2.29,2.71l4,.43c-.26,2.3,1.72,1.94,2.65,1.72,3.2-.75,4.13,1,4.81,3.56a4.34,4.34,0,0,0,1.58,2c2.4,1.91,2.35,1.88,2.47,4.51a2.88,2.88,0,0,0,1.17,1.76c2.22,1.7,3.43,3.46.83,5.56l4.34,7.17c-1.78,1.65,1,2.65,1.63,3.09,1.64,1.22,2.58,2.17,1.95,4.39-.49,1.75,1.71,3.52,3.53,3.14.15,0,.38-.09.47,0,1.92,1.63,5.48,1.39,5.65,5l-1.88.62c.88,4.53,4.56.82,6.88,3,1.24,1.78-1.13,3.6-1.64,6,3.25.44,3.31,3.11,2.34,5.05-.54,1.1-3.15,1.18-4.74,1.69V197c-3.66-.78-4.39-.33-3.86,2.13l-9.33-2.1c-.3,1.79-.49,2.87-.65,3.8a5.28,5.28,0,0,1-2,0,8.57,8.57,0,0,1-2.94-2c-.77-1-3.31-1.94-4.34-1.28a13.65,13.65,0,0,1-1.66.78c-.25,1.21-.48,2.29-.77,3.66-2.42-1.33-4.19-2.92-4.15-5.46,0-3.37-2.48-4.54-4.56-6.17a1,1,0,0,0-.68-.11c-4.61.89-9.65.28-13.39,4.09-1.66,1.69-3.48,1.66-5.59.54-2.93-1.55-3.77-1.17-4.95,1.94a16,16,0,0,1-5.73,7.3,6.66,6.66,0,0,0-2.76,6.73c.32,2.8.6,5.61.81,8.42.16,2.07-1.26,3.16-3.94,3.17-2.48,0-3.27-.87-3.29-3.19,0-4.64-.19-9.28-.3-13.91a6.77,6.77,0,0,0-3.46-5.48,71.32,71.32,0,0,0-7.63-4.29,18.55,18.55,0,0,0-3.63-1c-.14,1.06-.26,2-.38,2.93l-3.44-1.3c.62-2.29-1-1.46-2.57-1.25.4.66.68,1.11,1,1.56-1.37,1.36-4.69-3.64-4.64,1.36-7.18.76-13.07-3.42-19.85-4.84l-1,2.23-2.47-.39c-.31-1-.64-1.95-.9-2.76l-1.89.47.68-1.5a35.07,35.07,0,0,0-4.74-.9c-1.52-.1-2.12.92-1.46,2.27S231.37,195.24,233.41,194.5Zm64.35.13c-1.71.84-3.79.64-4.67,3.12-1.2,3.41-1.51,4.1.24,5.83.41-.51.72-1.23,1.26-1.49C297.77,200.52,299.9,198.56,297.76,194.63Zm-22.53-2.22c2.07,1.29,4.43,2.81,6.84,4.22a1.81,1.81,0,0,0,1.59,0,1.48,1.48,0,0,0,.27-1.39,51.21,51.21,0,0,0-2.47-4.84c-.83-1.4-2-.89-2.55.12C278,192.26,276.72,193,275.23,192.41Zm-24,1.11-7.71-2.09-.32,1c3.72,1,7.43,2.11,11.18,3,.35.09.94-.81,1.27-1.12a11.43,11.43,0,0,0,1.12.37c1.13-2.6-1.7-2.71-2.83-4.88Zm39.88-2.67-3.8-.31a9.22,9.22,0,0,0,.52,2.53,14.94,14.94,0,0,0,1.93,2.32,21.28,21.28,0,0,0,2-3.1C291.91,191.9,291.27,191.17,291.12,190.85ZM266.55,193l-2.92-2.56c-.53,1.12-.93,1.95-1.5,3.14Z" transform="translate(-78.05 -80.66)"/><path d="M233.41,194.5c-2,.74-2.84-.75-3.52-2.13s-.06-2.37,1.46-2.27a35.07,35.07,0,0,1,4.74.9l-.68,1.5Z" transform="translate(-78.05 -80.66)"/><path class="cls-1" d="M397.82,378.33c4.17-9.27,9.09-17.09,17.09-22.55.68-.47,1.8-.29,2.72-.41a6,6,0,0,1,.05,2.34C413.72,366.79,407.12,373.36,397.82,378.33Z" transform="translate(-78.05 -80.66)"/><path class="cls-1" d="M209.64,378.48c3.58-8.47,8-16.23,15.42-21.9a6.12,6.12,0,0,1,1.67-1c.66-.23,1.8-.5,2-.22a3.06,3.06,0,0,1,.35,2.22,8.7,8.7,0,0,1-1.16,2.72C223.32,367.81,216.85,373.52,209.64,378.48Z" transform="translate(-78.05 -80.66)"/><path class="cls-1" d="M328.33,429.61c-.79-2.4-1.58-4.8-2.46-7.49H332c-1.12,2.79-2.06,5.17-3,7.55Z" transform="translate(-78.05 -80.66)"/><path d="M297.76,194.63c2.14,3.93,0,5.89-3.17,7.46-.54.26-.85,1-1.26,1.49-1.75-1.73-1.44-2.42-.24-5.83C294,195.27,296.05,195.47,297.76,194.63Z" transform="translate(-78.05 -80.66)"/><path d="M275.23,192.41c1.49.58,2.72-.15,3.68-1.94.54-1,1.72-1.52,2.55-.12a51.21,51.21,0,0,1,2.47,4.84,1.48,1.48,0,0,1-.27,1.39,1.81,1.81,0,0,1-1.59,0C279.66,195.22,277.3,193.7,275.23,192.41Z" transform="translate(-78.05 -80.66)"/><path d="M251.24,193.52l2.71-3.65c1.13,2.17,4,2.28,2.83,4.88a11.43,11.43,0,0,1-1.12-.37c-.33.31-.92,1.21-1.27,1.12-3.75-.92-7.46-2-11.18-3l.32-1Z" transform="translate(-78.05 -80.66)"/><path d="M291.12,190.85c.15.32.79,1.05.62,1.44a21.28,21.28,0,0,1-2,3.1,14.94,14.94,0,0,1-1.93-2.32,9.22,9.22,0,0,1-.52-2.53Z" transform="translate(-78.05 -80.66)"/><path d="M266.55,193l-4.42.58c.57-1.19,1-2,1.5-3.14Z" transform="translate(-78.05 -80.66)"/></g></g><g id="text"><text class="cls-2" transform="translate(0.1 321.77)">Rush Creek</text><text class="cls-3" transform="translate(205.95 364.97)">WINES</text></g></svg>