<?xml version="1.0" encoding="utf-8"?>
<!-- Generator: Adobe Illustrator 23.0.0, SVG Export Plug-In . SVG Version: 6.00 Build 0)  -->
<svg version="1.1" id="Layer_1" xmlns="http://www.w3.org/2000/svg" xmlns:xlink="http://www.w3.org/1999/xlink" x="0px" y="0px"
	 viewBox="0 0 66 66" style="enable-background:new 0 0 66 66;" xml:space="preserve">
<style type="text/css">
	.st0{fill:#57595B;}
	.st1{fill:#FFFFFF;}
</style>
<g>
	<path class="st0" d="M59.72,31.11c0,13.25-10.75,24-24,24c-13.26,0-24-10.75-24-24c0-13.26,10.75-24,24-24
		C48.98,7.11,59.72,17.86,59.72,31.11z"/>
	<g>
		<path class="st1" d="M31.72,46.11h6c0,0,0-8.28,0-15h4.45l0.55-6h-4.77v-2.4c0-1.17,0.78-1.44,1.33-1.44s3.37,0,3.37,0v-5.14
			l-4.63-0.02c-5.14,0-6.31,3.83-6.31,6.29v2.71h-2.98v6h3C31.72,37.91,31.72,46.11,31.72,46.11z"/>
	</g>
</g>
</svg>
