<?xml version="1.0" encoding="utf-8"?>
<!-- Generator: Adobe Illustrator 23.0.0, SVG Export Plug-In . SVG Version: 6.00 Build 0)  -->
<svg version="1.1" id="Layer_1" xmlns="http://www.w3.org/2000/svg" xmlns:xlink="http://www.w3.org/1999/xlink" x="0px" y="0px"
	 viewBox="0 0 66 66" style="enable-background:new 0 0 66 66;" xml:space="preserve">
<style type="text/css">
	.st0{fill:#57595B;}
	.st1{fill:#FFFFFF;}
	.st2{fill:none;}
</style>
<g>
	<path class="st0" d="M57,33c0,13.25-10.75,24-24,24C19.75,57,9,46.25,9,33C9,19.74,19.75,9,33,9C46.25,9,57,19.74,57,33z"/>
	<g>
		<path class="st1" d="M42.2,18H23.8c-3.2,0-5.8,2.6-5.8,5.8v6.12V42.2c0,3.2,2.6,5.8,5.8,5.8h18.4c3.2,0,5.8-2.6,5.8-5.8V29.92
			V23.8C48,20.6,45.4,18,42.2,18z M43.87,21.46l0.66,0v0.66v4.42l-5.07,0.02l-0.02-5.08L43.87,21.46z M28.72,29.92
			c0.96-1.33,2.52-2.2,4.28-2.2s3.32,0.87,4.28,2.2c0.62,0.87,1,1.93,1,3.08c0,2.91-2.37,5.28-5.28,5.28
			c-2.91,0-5.28-2.37-5.28-5.28C27.72,31.85,28.09,30.79,28.72,29.92z M45.08,42.2c0,1.59-1.29,2.88-2.88,2.88H23.8
			c-1.59,0-2.88-1.29-2.88-2.88V29.92h4.48c-0.39,0.95-0.6,1.99-0.6,3.08c0,4.52,3.68,8.2,8.2,8.2c4.52,0,8.2-3.68,8.2-8.2
			c0-1.09-0.22-2.13-0.61-3.08h4.48V42.2z"/>
	</g>
</g>
<rect class="st2" width="66" height="66"/>
</svg>
