<?xml version="1.0" encoding="utf-8"?>
<!-- Generator: Adobe Illustrator 23.0.0, SVG Export Plug-In . SVG Version: 6.00 Build 0)  -->
<svg version="1.1" id="Layer_1" xmlns="http://www.w3.org/2000/svg" xmlns:xlink="http://www.w3.org/1999/xlink" x="0px" y="0px"
	 viewBox="0 0 66.6 66.6" style="enable-background:new 0 0 66.6 66.6;" xml:space="preserve">
<style type="text/css">
	.st0{fill:#57595B;}
	.st1{fill:#FFFFFF;}
	.st2{fill:none;}
</style>
<g>
	<path class="st0" d="M57.68,33.3c0,13.46-10.91,24.38-24.38,24.38c-13.46,0-24.38-10.91-24.38-24.38
		c0-13.46,10.91-24.38,24.38-24.38C46.76,8.92,57.68,19.83,57.68,33.3z"/>
	<g>
		<path class="st1" d="M47.69,21.56c-1.21,0.71-2.55,1.22-3.97,1.49c-1.14-1.2-2.76-1.94-4.56-1.94c-3.45,0-6.25,2.76-6.25,6.15
			c0,0.48,0.06,0.95,0.16,1.4c-5.2-0.26-9.8-2.71-12.89-6.43c-0.54,0.91-0.85,1.97-0.85,3.09c0,2.13,1.11,4.02,2.78,5.12
			c-1.02-0.03-1.99-0.31-2.83-0.77c0,0.03,0,0.05,0,0.08c0,2.98,2.16,5.47,5.02,6.03c-0.53,0.14-1.08,0.22-1.65,0.22
			c-0.4,0-0.79-0.04-1.18-0.11c0.8,2.44,3.1,4.22,5.84,4.27c-2.14,1.65-4.83,2.63-7.77,2.63c-0.51,0-1-0.03-1.49-0.09
			c2.77,1.75,6.06,2.76,9.58,2.76c11.5,0,17.79-9.38,17.79-17.51c0-0.27,0-0.53-0.02-0.8c1.22-0.87,2.28-1.95,3.12-3.19
			c-1.12,0.49-2.32,0.82-3.59,0.97C46.24,24.2,47.23,23,47.69,21.56z"/>
	</g>
</g>
<rect class="st2" width="66.6" height="66.6"/>
</svg>
